<svg xmlns="http://www.w3.org/2000/svg" width="1824" height="663" viewBox="0 0 1824 663"><rect width="100%" height="100%" fill="white"/><rect x="64" y="16" width="16" height="16" fill="rgb(255,212,0)" /><rect x="64" y="32" width="16" height="16" fill="rgb(255,212,0)" /><rect x="80" y="32" width="16" height="16" fill="rgb(255,212,0)" /><rect x="96" y="32" width="16" height="16" fill="rgb(255,212,0)" /><rect x="64" y="48" width="16" height="16" fill="rgb(255,212,0)" /><rect x="80" y="48" width="16" height="16" fill="rgb(255,212,0)" /><rect x="96" y="48" width="16" height="16" fill="rgb(255,212,0)" /><rect x="112" y="48" width="16" height="16" fill="rgb(255,212,0)" /><rect x="128" y="48" width="16" height="16" fill="rgb(255,212,0)" /><rect x="144" y="48" width="16" height="16" fill="rgb(255,212,0)" /><rect x="160" y="48" width="16" height="16" fill="rgb(255,212,0)" /><rect x="176" y="48" width="16" height="16" fill="rgb(255,212,0)" /><rect x="192" y="48" width="16" height="16" fill="rgb(255,212,0)" /><rect x="208" y="48" width="16" height="16" fill="rgb(255,212,0)" /><rect x="224" y="48" width="16" height="16" fill="rgb(255,212,0)" /><rect x="240" y="48" width="16" height="16" fill="rgb(255,212,0)" /><rect x="256" y="48" width="16" height="16" fill="rgb(255,212,0)" /><rect x="272" y="48" width="16" height="16" fill="rgb(255,212,0)" /><rect x="288" y="48" width="16" height="16" fill="rgb(255,212,0)" /><rect x="304" y="48" width="16" height="16" fill="rgb(255,212,0)" /><rect x="320" y="48" width="16" height="16" fill="rgb(255,212,0)" /><rect x="336" y="48" width="16" height="16" fill="rgb(255,212,0)" /><rect x="352" y="48" width="16" height="16" fill="rgb(255,212,0)" /><rect x="368" y="48" width="16" height="16" fill="rgb(255,212,0)" /><rect x="384" y="48" width="16" height="16" fill="rgb(255,212,0)" /><rect x="64" y="64" width="16" height="16" fill="rgb(255,212,0)" /><rect x="80" y="64" width="16" height="16" fill="rgb(255,212,0)" /><rect x="96" y="64" width="16" height="16" fill="rgb(255,212,0)" /><rect x="112" y="64" width="16" height="16" fill="rgb(255,212,0)" /><rect x="128" y="64" width="16" height="16" fill="rgb(255,212,0)" /><rect x="144" y="64" width="16" height="16" fill="rgb(255,212,0)" /><rect x="160" y="64" width="16" height="16" fill="rgb(255,212,0)" /><rect x="176" y="64" width="16" height="16" fill="rgb(255,212,0)" /><rect x="192" y="64" width="16" height="16" fill="rgb(255,212,0)" /><rect x="208" y="64" width="16" height="16" fill="rgb(255,212,0)" /><rect x="224" y="64" width="16" height="16" fill="rgb(255,212,0)" /><rect x="240" y="64" width="16" height="16" fill="rgb(255,212,0)" /><rect x="256" y="64" width="16" height="16" fill="rgb(255,212,0)" /><rect x="272" y="64" width="16" height="16" fill="rgb(255,212,0)" /><rect x="288" y="64" width="16" height="16" fill="rgb(255,212,0)" /><rect x="304" y="64" width="16" height="16" fill="rgb(255,212,0)" /><rect x="320" y="64" width="16" height="16" fill="rgb(255,212,0)" /><rect x="336" y="64" width="16" height="16" fill="rgb(255,212,0)" /><rect x="352" y="64" width="16" height="16" fill="rgb(255,212,0)" /><rect x="368" y="64" width="16" height="16" fill="rgb(255,212,0)" /><rect x="384" y="64" width="16" height="16" fill="rgb(255,212,0)" /><rect x="400" y="64" width="16" height="16" fill="rgb(255,212,0)" /><rect x="64" y="80" width="16" height="16" fill="rgb(255,211,0)" /><rect x="80" y="80" width="16" height="16" fill="rgb(255,212,0)" /><rect x="96" y="80" width="16" height="16" fill="rgb(255,212,0)" /><rect x="112" y="80" width="16" height="16" fill="rgb(255,212,0)" /><rect x="128" y="80" width="16" height="16" fill="rgb(255,212,0)" /><rect x="144" y="80" width="16" height="16" fill="rgb(255,212,0)" /><rect x="160" y="80" width="16" height="16" fill="rgb(255,212,0)" /><rect x="176" y="80" width="16" height="16" fill="rgb(255,212,0)" /><rect x="192" y="80" width="16" height="16" fill="rgb(255,212,0)" /><rect x="208" y="80" width="16" height="16" fill="rgb(255,212,0)" /><rect x="224" y="80" width="16" height="16" fill="rgb(255,212,0)" /><rect x="240" y="80" width="16" height="16" fill="rgb(255,212,0)" /><rect x="256" y="80" width="16" height="16" fill="rgb(255,212,0)" /><rect x="272" y="80" width="16" height="16" fill="rgb(255,212,0)" /><rect x="288" y="80" width="16" height="16" fill="rgb(255,212,0)" /><rect x="304" y="80" width="16" height="16" fill="rgb(255,212,0)" /><rect x="320" y="80" width="16" height="16" fill="rgb(255,212,0)" /><rect x="336" y="80" width="16" height="16" fill="rgb(255,212,0)" /><rect x="352" y="80" width="16" height="16" fill="rgb(255,212,0)" /><rect x="368" y="80" width="16" height="16" fill="rgb(255,212,0)" /><rect x="384" y="80" width="16" height="16" fill="rgb(255,212,0)" /><rect x="400" y="80" width="16" height="16" fill="rgb(255,212,0)" /><rect x="416" y="80" width="16" height="16" fill="rgb(255,212,0)" /><rect x="80" y="96" width="16" height="16" fill="rgb(255,212,0)" /><rect x="96" y="96" width="16" height="16" fill="rgb(255,212,0)" /><rect x="112" y="96" width="16" height="16" fill="rgb(255,212,0)" /><rect x="128" y="96" width="16" height="16" fill="rgb(255,212,0)" /><rect x="144" y="96" width="16" height="16" fill="rgb(255,212,0)" /><rect x="160" y="96" width="16" height="16" fill="rgb(255,212,0)" /><rect x="176" y="96" width="16" height="16" fill="rgb(255,212,0)" /><rect x="192" y="96" width="16" height="16" fill="rgb(255,212,0)" /><rect x="208" y="96" width="16" height="16" fill="rgb(255,212,0)" /><rect x="224" y="96" width="16" height="16" fill="rgb(255,212,0)" /><rect x="240" y="96" width="16" height="16" fill="rgb(255,212,0)" /><rect x="256" y="96" width="16" height="16" fill="rgb(255,212,0)" /><rect x="272" y="96" width="16" height="16" fill="rgb(255,212,0)" /><rect x="288" y="96" width="16" height="16" fill="rgb(255,212,0)" /><rect x="304" y="96" width="16" height="16" fill="rgb(255,212,0)" /><rect x="320" y="96" width="16" height="16" fill="rgb(255,212,0)" /><rect x="336" y="96" width="16" height="16" fill="rgb(255,212,0)" /><rect x="352" y="96" width="16" height="16" fill="rgb(255,212,0)" /><rect x="368" y="96" width="16" height="16" fill="rgb(255,212,0)" /><rect x="384" y="96" width="16" height="16" fill="rgb(255,212,0)" /><rect x="400" y="96" width="16" height="16" fill="rgb(255,212,0)" /><rect x="416" y="96" width="16" height="16" fill="rgb(255,212,0)" /><rect x="112" y="112" width="16" height="16" fill="rgb(255,212,0)" /><rect x="128" y="112" width="16" height="16" fill="rgb(255,212,0)" /><rect x="144" y="112" width="16" height="16" fill="rgb(255,212,0)" /><rect x="160" y="112" width="16" height="16" fill="rgb(255,212,0)" /><rect x="176" y="112" width="16" height="16" fill="rgb(255,212,0)" /><rect x="192" y="112" width="16" height="16" fill="rgb(255,212,0)" /><rect x="208" y="112" width="16" height="16" fill="rgb(255,212,0)" /><rect x="224" y="112" width="16" height="16" fill="rgb(255,212,0)" /><rect x="240" y="112" width="16" height="16" fill="rgb(255,212,0)" /><rect x="256" y="112" width="16" height="16" fill="rgb(255,212,0)" /><rect x="272" y="112" width="16" height="16" fill="rgb(255,212,0)" /><rect x="288" y="112" width="16" height="16" fill="rgb(255,212,0)" /><rect x="304" y="112" width="16" height="16" fill="rgb(255,212,0)" /><rect x="320" y="112" width="16" height="16" fill="rgb(255,212,0)" /><rect x="336" y="112" width="16" height="16" fill="rgb(255,212,0)" /><rect x="352" y="112" width="16" height="16" fill="rgb(255,212,0)" /><rect x="368" y="112" width="16" height="16" fill="rgb(255,212,0)" /><rect x="384" y="112" width="16" height="16" fill="rgb(255,212,0)" /><rect x="400" y="112" width="16" height="16" fill="rgb(255,212,0)" /><rect x="416" y="112" width="16" height="16" fill="rgb(255,212,0)" /><rect x="384" y="128" width="16" height="16" fill="rgb(255,212,0)" /><rect x="400" y="128" width="16" height="16" fill="rgb(255,212,0)" /><rect x="416" y="128" width="16" height="16" fill="rgb(255,212,0)" /><rect x="96" y="144" width="16" height="16" fill="rgb(255,212,0)" /><rect x="112" y="144" width="16" height="16" fill="rgb(255,212,0)" /><rect x="128" y="144" width="16" height="16" fill="rgb(255,212,0)" /><rect x="144" y="144" width="16" height="16" fill="rgb(255,212,0)" /><rect x="160" y="144" width="16" height="16" fill="rgb(255,212,0)" /><rect x="176" y="144" width="16" height="16" fill="rgb(255,212,0)" /><rect x="192" y="144" width="16" height="16" fill="rgb(255,212,0)" /><rect x="208" y="144" width="16" height="16" fill="rgb(255,212,0)" /><rect x="224" y="144" width="16" height="16" fill="rgb(255,212,0)" /><rect x="240" y="144" width="16" height="16" fill="rgb(255,212,0)" /><rect x="256" y="144" width="16" height="16" fill="rgb(255,212,0)" /><rect x="272" y="144" width="16" height="16" fill="rgb(255,212,0)" /><rect x="288" y="144" width="16" height="16" fill="rgb(255,212,0)" /><rect x="304" y="144" width="16" height="16" fill="rgb(255,212,0)" /><rect x="320" y="144" width="16" height="16" fill="rgb(255,212,0)" /><rect x="336" y="144" width="16" height="16" fill="rgb(255,212,0)" /><rect x="352" y="144" width="16" height="16" fill="rgb(255,212,0)" /><rect x="368" y="144" width="16" height="16" fill="rgb(255,212,0)" /><rect x="384" y="144" width="16" height="16" fill="rgb(255,212,0)" /><rect x="400" y="144" width="16" height="16" fill="rgb(255,212,0)" /><rect x="416" y="144" width="16" height="16" fill="rgb(255,212,0)" /><rect x="80" y="160" width="16" height="16" fill="rgb(255,212,0)" /><rect x="96" y="160" width="16" height="16" fill="rgb(255,212,0)" /><rect x="112" y="160" width="16" height="16" fill="rgb(255,212,0)" /><rect x="128" y="160" width="16" height="16" fill="rgb(255,212,0)" /><rect x="144" y="160" width="16" height="16" fill="rgb(255,212,0)" /><rect x="160" y="160" width="16" height="16" fill="rgb(255,212,0)" /><rect x="176" y="160" width="16" height="16" fill="rgb(255,212,0)" /><rect x="192" y="160" width="16" height="16" fill="rgb(255,212,0)" /><rect x="208" y="160" width="16" height="16" fill="rgb(255,212,0)" /><rect x="224" y="160" width="16" height="16" fill="rgb(255,212,0)" /><rect x="240" y="160" width="16" height="16" fill="rgb(255,212,0)" /><rect x="256" y="160" width="16" height="16" fill="rgb(255,212,0)" /><rect x="272" y="160" width="16" height="16" fill="rgb(255,212,0)" /><rect x="288" y="160" width="16" height="16" fill="rgb(255,212,0)" /><rect x="304" y="160" width="16" height="16" fill="rgb(255,212,0)" /><rect x="320" y="160" width="16" height="16" fill="rgb(255,212,0)" /><rect x="336" y="160" width="16" height="16" fill="rgb(255,212,0)" /><rect x="352" y="160" width="16" height="16" fill="rgb(255,212,0)" /><rect x="368" y="160" width="16" height="16" fill="rgb(255,212,0)" /><rect x="384" y="160" width="16" height="16" fill="rgb(255,212,0)" /><rect x="400" y="160" width="16" height="16" fill="rgb(255,212,0)" /><rect x="416" y="160" width="16" height="16" fill="rgb(255,212,0)" /><rect x="64" y="176" width="16" height="16" fill="rgb(255,212,0)" /><rect x="80" y="176" width="16" height="16" fill="rgb(255,212,0)" /><rect x="96" y="176" width="16" height="16" fill="rgb(255,212,0)" /><rect x="112" y="176" width="16" height="16" fill="rgb(255,212,0)" /><rect x="128" y="176" width="16" height="16" fill="rgb(255,212,0)" /><rect x="144" y="176" width="16" height="16" fill="rgb(255,212,0)" /><rect x="160" y="176" width="16" height="16" fill="rgb(255,212,0)" /><rect x="176" y="176" width="16" height="16" fill="rgb(255,212,0)" /><rect x="192" y="176" width="16" height="16" fill="rgb(255,212,0)" /><rect x="208" y="176" width="16" height="16" fill="rgb(255,212,0)" /><rect x="224" y="176" width="16" height="16" fill="rgb(255,212,0)" /><rect x="240" y="176" width="16" height="16" fill="rgb(255,212,0)" /><rect x="256" y="176" width="16" height="16" fill="rgb(255,212,0)" /><rect x="272" y="176" width="16" height="16" fill="rgb(255,212,0)" /><rect x="288" y="176" width="16" height="16" fill="rgb(255,212,0)" /><rect x="304" y="176" width="16" height="16" fill="rgb(255,212,0)" /><rect x="320" y="176" width="16" height="16" fill="rgb(255,212,0)" /><rect x="336" y="176" width="16" height="16" fill="rgb(255,212,0)" /><rect x="352" y="176" width="16" height="16" fill="rgb(255,212,0)" /><rect x="368" y="176" width="16" height="16" fill="rgb(255,212,0)" /><rect x="384" y="176" width="16" height="16" fill="rgb(255,212,0)" /><rect x="400" y="176" width="16" height="16" fill="rgb(255,212,0)" /><rect x="64" y="192" width="16" height="16" fill="rgb(255,212,0)" /><rect x="80" y="192" width="16" height="16" fill="rgb(255,212,0)" /><rect x="96" y="192" width="16" height="16" fill="rgb(255,212,0)" /><rect x="112" y="192" width="16" height="16" fill="rgb(255,212,0)" /><rect x="128" y="192" width="16" height="16" fill="rgb(255,212,0)" /><rect x="144" y="192" width="16" height="16" fill="rgb(255,212,0)" /><rect x="160" y="192" width="16" height="16" fill="rgb(255,212,0)" /><rect x="176" y="192" width="16" height="16" fill="rgb(255,212,0)" /><rect x="192" y="192" width="16" height="16" fill="rgb(255,212,0)" /><rect x="208" y="192" width="16" height="16" fill="rgb(255,212,0)" /><rect x="224" y="192" width="16" height="16" fill="rgb(255,212,0)" /><rect x="240" y="192" width="16" height="16" fill="rgb(255,212,0)" /><rect x="256" y="192" width="16" height="16" fill="rgb(255,212,0)" /><rect x="272" y="192" width="16" height="16" fill="rgb(255,212,0)" /><rect x="288" y="192" width="16" height="16" fill="rgb(255,212,0)" /><rect x="304" y="192" width="16" height="16" fill="rgb(255,212,0)" /><rect x="320" y="192" width="16" height="16" fill="rgb(255,212,0)" /><rect x="336" y="192" width="16" height="16" fill="rgb(255,212,0)" /><rect x="352" y="192" width="16" height="16" fill="rgb(255,212,0)" /><rect x="368" y="192" width="16" height="16" fill="rgb(255,212,0)" /><rect x="384" y="192" width="16" height="16" fill="rgb(255,212,0)" /><rect x="400" y="192" width="16" height="16" fill="rgb(255,211,0)" /><rect x="64" y="208" width="16" height="16" fill="rgb(255,212,0)" /><rect x="80" y="208" width="16" height="16" fill="rgb(255,212,0)" /><rect x="96" y="208" width="16" height="16" fill="rgb(255,212,0)" /><rect x="112" y="208" width="16" height="16" fill="rgb(255,212,0)" /><rect x="128" y="208" width="16" height="16" fill="rgb(255,212,0)" /><rect x="144" y="208" width="16" height="16" fill="rgb(255,212,0)" /><rect x="160" y="208" width="16" height="16" fill="rgb(255,212,0)" /><rect x="176" y="208" width="16" height="16" fill="rgb(255,212,0)" /><rect x="192" y="208" width="16" height="16" fill="rgb(255,212,0)" /><rect x="208" y="208" width="16" height="16" fill="rgb(255,212,0)" /><rect x="224" y="208" width="16" height="16" fill="rgb(255,212,0)" /><rect x="240" y="208" width="16" height="16" fill="rgb(255,212,0)" /><rect x="256" y="208" width="16" height="16" fill="rgb(255,212,0)" /><rect x="272" y="208" width="16" height="16" fill="rgb(255,212,0)" /><rect x="288" y="208" width="16" height="16" fill="rgb(255,212,0)" /><rect x="304" y="208" width="16" height="16" fill="rgb(255,212,0)" /><rect x="320" y="208" width="16" height="16" fill="rgb(255,212,0)" /><rect x="336" y="208" width="16" height="16" fill="rgb(255,212,0)" /><rect x="352" y="208" width="16" height="16" fill="rgb(255,212,0)" /><rect x="64" y="224" width="16" height="16" fill="rgb(255,212,0)" /><rect x="80" y="224" width="16" height="16" fill="rgb(255,212,0)" /><rect x="64" y="240" width="16" height="16" fill="rgb(255,212,0)" /><rect x="80" y="240" width="16" height="16" fill="rgb(255,212,0)" /><rect x="96" y="240" width="16" height="16" fill="rgb(255,212,0)" /><rect x="64" y="256" width="16" height="16" fill="rgb(255,212,0)" /><rect x="80" y="256" width="16" height="16" fill="rgb(255,212,0)" /><rect x="96" y="256" width="16" height="16" fill="rgb(255,212,0)" /><rect x="112" y="256" width="16" height="16" fill="rgb(255,212,0)" /><rect x="128" y="256" width="16" height="16" fill="rgb(255,212,0)" /><rect x="144" y="256" width="16" height="16" fill="rgb(255,212,0)" /><rect x="160" y="256" width="16" height="16" fill="rgb(255,212,0)" /><rect x="176" y="256" width="16" height="16" fill="rgb(255,212,0)" /><rect x="192" y="256" width="16" height="16" fill="rgb(255,212,0)" /><rect x="208" y="256" width="16" height="16" fill="rgb(255,212,0)" /><rect x="224" y="256" width="16" height="16" fill="rgb(255,212,0)" /><rect x="240" y="256" width="16" height="16" fill="rgb(255,212,0)" /><rect x="256" y="256" width="16" height="16" fill="rgb(255,212,0)" /><rect x="272" y="256" width="16" height="16" fill="rgb(255,212,0)" /><rect x="64" y="272" width="16" height="16" fill="rgb(255,212,0)" /><rect x="80" y="272" width="16" height="16" fill="rgb(255,212,0)" /><rect x="96" y="272" width="16" height="16" fill="rgb(255,212,0)" /><rect x="112" y="272" width="16" height="16" fill="rgb(255,212,0)" /><rect x="128" y="272" width="16" height="16" fill="rgb(255,212,0)" /><rect x="144" y="272" width="16" height="16" fill="rgb(255,212,0)" /><rect x="160" y="272" width="16" height="16" fill="rgb(255,212,0)" /><rect x="176" y="272" width="16" height="16" fill="rgb(255,212,0)" /><rect x="192" y="272" width="16" height="16" fill="rgb(255,212,0)" /><rect x="208" y="272" width="16" height="16" fill="rgb(255,212,0)" /><rect x="224" y="272" width="16" height="16" fill="rgb(255,212,0)" /><rect x="240" y="272" width="16" height="16" fill="rgb(255,212,0)" /><rect x="256" y="272" width="16" height="16" fill="rgb(255,212,0)" /><rect x="272" y="272" width="16" height="16" fill="rgb(255,212,0)" /><rect x="288" y="272" width="16" height="16" fill="rgb(255,212,0)" /><rect x="64" y="288" width="16" height="16" fill="rgb(255,212,0)" /><rect x="80" y="288" width="16" height="16" fill="rgb(255,212,0)" /><rect x="96" y="288" width="16" height="16" fill="rgb(255,212,0)" /><rect x="112" y="288" width="16" height="16" fill="rgb(255,212,0)" /><rect x="128" y="288" width="16" height="16" fill="rgb(255,212,0)" /><rect x="144" y="288" width="16" height="16" fill="rgb(255,212,0)" /><rect x="160" y="288" width="16" height="16" fill="rgb(255,212,0)" /><rect x="176" y="288" width="16" height="16" fill="rgb(255,212,0)" /><rect x="192" y="288" width="16" height="16" fill="rgb(255,212,0)" /><rect x="208" y="288" width="16" height="16" fill="rgb(255,212,0)" /><rect x="224" y="288" width="16" height="16" fill="rgb(255,212,0)" /><rect x="240" y="288" width="16" height="16" fill="rgb(255,212,0)" /><rect x="256" y="288" width="16" height="16" fill="rgb(255,212,0)" /><rect x="272" y="288" width="16" height="16" fill="rgb(255,212,0)" /><rect x="288" y="288" width="16" height="16" fill="rgb(255,212,0)" /><rect x="304" y="288" width="16" height="16" fill="rgb(255,212,0)" /><rect x="80" y="304" width="16" height="16" fill="rgb(255,212,0)" /><rect x="96" y="304" width="16" height="16" fill="rgb(255,212,0)" /><rect x="112" y="304" width="16" height="16" fill="rgb(255,212,0)" /><rect x="128" y="304" width="16" height="16" fill="rgb(255,212,0)" /><rect x="144" y="304" width="16" height="16" fill="rgb(255,212,0)" /><rect x="160" y="304" width="16" height="16" fill="rgb(255,212,0)" /><rect x="176" y="304" width="16" height="16" fill="rgb(255,212,0)" /><rect x="192" y="304" width="16" height="16" fill="rgb(255,212,0)" /><rect x="208" y="304" width="16" height="16" fill="rgb(255,212,0)" /><rect x="224" y="304" width="16" height="16" fill="rgb(255,212,0)" /><rect x="240" y="304" width="16" height="16" fill="rgb(255,212,0)" /><rect x="256" y="304" width="16" height="16" fill="rgb(255,212,0)" /><rect x="272" y="304" width="16" height="16" fill="rgb(255,212,0)" /><rect x="288" y="304" width="16" height="16" fill="rgb(255,212,0)" /><rect x="304" y="304" width="16" height="16" fill="rgb(255,212,0)" /><rect x="112" y="320" width="16" height="16" fill="rgb(255,212,0)" /><rect x="128" y="320" width="16" height="16" fill="rgb(255,212,0)" /><rect x="144" y="320" width="16" height="16" fill="rgb(255,212,0)" /><rect x="160" y="320" width="16" height="16" fill="rgb(255,212,0)" /><rect x="176" y="320" width="16" height="16" fill="rgb(255,212,0)" /><rect x="192" y="320" width="16" height="16" fill="rgb(255,212,0)" /><rect x="208" y="320" width="16" height="16" fill="rgb(255,212,0)" /><rect x="224" y="320" width="16" height="16" fill="rgb(255,212,0)" /><rect x="240" y="320" width="16" height="16" fill="rgb(255,212,0)" /><rect x="256" y="320" width="16" height="16" fill="rgb(255,212,0)" /><rect x="272" y="320" width="16" height="16" fill="rgb(255,212,0)" /><rect x="288" y="320" width="16" height="16" fill="rgb(255,212,0)" /><rect x="304" y="320" width="16" height="16" fill="rgb(255,212,0)" /><rect x="288" y="336" width="16" height="16" fill="rgb(255,212,0)" /><rect x="304" y="336" width="16" height="16" fill="rgb(255,212,0)" /><rect x="304" y="352" width="16" height="16" fill="rgb(255,212,0)" /><rect x="304" y="368" width="16" height="16" fill="rgb(255,212,0)" /><rect x="304" y="384" width="16" height="16" fill="rgb(255,212,0)" /><rect x="304" y="400" width="16" height="16" fill="rgb(255,212,0)" /><rect x="304" y="416" width="16" height="16" fill="rgb(255,212,0)" /><rect x="304" y="432" width="16" height="16" fill="rgb(255,212,0)" /><rect x="304" y="448" width="16" height="16" fill="rgb(255,212,0)" /><rect x="304" y="464" width="16" height="16" fill="rgb(255,212,0)" /><rect x="288" y="480" width="16" height="16" fill="rgb(255,212,0)" /><rect x="304" y="480" width="16" height="16" fill="rgb(255,212,0)" /><rect x="320" y="480" width="16" height="16" fill="rgb(255,212,0)" /><rect x="272" y="496" width="16" height="16" fill="rgb(255,212,0)" /><rect x="288" y="496" width="16" height="16" fill="rgb(255,212,0)" /><rect x="304" y="496" width="16" height="16" fill="rgb(255,212,0)" /><rect x="320" y="496" width="16" height="16" fill="rgb(255,212,0)" /><rect x="336" y="496" width="16" height="16" fill="rgb(255,212,0)" /><rect x="352" y="496" width="16" height="16" fill="rgb(255,212,0)" /><rect x="272" y="512" width="16" height="16" fill="rgb(255,212,0)" /><rect x="288" y="512" width="16" height="16" fill="rgb(255,212,0)" /><rect x="304" y="512" width="16" height="16" fill="rgb(255,212,0)" /><rect x="320" y="512" width="16" height="16" fill="rgb(255,212,0)" /><rect x="336" y="512" width="16" height="16" fill="rgb(255,212,0)" /><rect x="288" y="528" width="16" height="16" fill="rgb(255,212,0)" /><rect x="304" y="528" width="16" height="16" fill="rgb(255,212,0)" /><rect x="320" y="528" width="16" height="16" fill="rgb(255,212,0)" /><rect x="304" y="544" width="16" height="16" fill="rgb(255,212,0)" /></svg>