<svg xmlns="http://www.w3.org/2000/svg" width="800" height="800" viewBox="0 0 800 800"><rect width="100%" height="100%" fill="white"/><rect x="444" y="240" width="12" height="12" fill="rgb(0,0,0)" /><rect x="456" y="240" width="12" height="12" fill="rgb(23,23,23)" /><rect x="420" y="252" width="12" height="12" fill="rgb(0,0,0)" /><rect x="432" y="252" width="12" height="12" fill="rgb(0,0,0)" /><rect x="444" y="252" width="12" height="12" fill="rgb(0,0,0)" /><rect x="456" y="252" width="12" height="12" fill="rgb(0,0,0)" /><rect x="396" y="264" width="12" height="12" fill="rgb(0,0,0)" /><rect x="408" y="264" width="12" height="12" fill="rgb(0,0,0)" /><rect x="420" y="264" width="12" height="12" fill="rgb(0,0,0)" /><rect x="432" y="264" width="12" height="12" fill="rgb(0,0,0)" /><rect x="444" y="264" width="12" height="12" fill="rgb(0,0,0)" /><rect x="456" y="264" width="12" height="12" fill="rgb(0,0,0)" /><rect x="468" y="264" width="12" height="12" fill="rgb(6,6,6)" /><rect x="384" y="276" width="12" height="12" fill="rgb(0,0,0)" /><rect x="396" y="276" width="12" height="12" fill="rgb(0,0,0)" /><rect x="408" y="276" width="12" height="12" fill="rgb(0,0,0)" /><rect x="420" y="276" width="12" height="12" fill="rgb(0,0,0)" /><rect x="432" y="276" width="12" height="12" fill="rgb(0,0,0)" /><rect x="444" y="276" width="12" height="12" fill="rgb(0,0,0)" /><rect x="456" y="276" width="12" height="12" fill="rgb(0,0,0)" /><rect x="468" y="276" width="12" height="12" fill="rgb(0,0,0)" /><rect x="384" y="288" width="12" height="12" fill="rgb(168,168,168)" /><rect x="396" y="288" width="12" height="12" fill="rgb(0,0,0)" /><rect x="408" y="288" width="12" height="12" fill="rgb(0,0,0)" /><rect x="420" y="288" width="12" height="12" fill="rgb(0,0,0)" /><rect x="432" y="288" width="12" height="12" fill="rgb(0,0,0)" /><rect x="444" y="288" width="12" height="12" fill="rgb(0,0,0)" /><rect x="456" y="288" width="12" height="12" fill="rgb(0,0,0)" /><rect x="468" y="288" width="12" height="12" fill="rgb(0,0,0)" /><rect x="480" y="288" width="12" height="12" fill="rgb(0,0,0)" /><rect x="396" y="300" width="12" height="12" fill="rgb(1,1,1)" /><rect x="408" y="300" width="12" height="12" fill="rgb(0,0,0)" /><rect x="420" y="300" width="12" height="12" fill="rgb(0,0,0)" /><rect x="432" y="300" width="12" height="12" fill="rgb(0,0,0)" /><rect x="444" y="300" width="12" height="12" fill="rgb(0,0,0)" /><rect x="456" y="300" width="12" height="12" fill="rgb(0,0,0)" /><rect x="468" y="300" width="12" height="12" fill="rgb(0,0,0)" /><rect x="480" y="300" width="12" height="12" fill="rgb(0,0,0)" /><rect x="492" y="300" width="12" height="12" fill="rgb(16,16,16)" /><rect x="360" y="312" width="12" height="12" fill="rgb(5,5,5)" /><rect x="408" y="312" width="12" height="12" fill="rgb(0,0,0)" /><rect x="420" y="312" width="12" height="12" fill="rgb(0,0,0)" /><rect x="432" y="312" width="12" height="12" fill="rgb(0,0,0)" /><rect x="444" y="312" width="12" height="12" fill="rgb(0,0,0)" /><rect x="456" y="312" width="12" height="12" fill="rgb(0,0,0)" /><rect x="468" y="312" width="12" height="12" fill="rgb(0,0,0)" /><rect x="480" y="312" width="12" height="12" fill="rgb(0,0,0)" /><rect x="492" y="312" width="12" height="12" fill="rgb(0,0,0)" /><rect x="336" y="324" width="12" height="12" fill="rgb(26,26,26)" /><rect x="348" y="324" width="12" height="12" fill="rgb(0,0,0)" /><rect x="360" y="324" width="12" height="12" fill="rgb(0,0,0)" /><rect x="408" y="324" width="12" height="12" fill="rgb(1,1,1)" /><rect x="420" y="324" width="12" height="12" fill="rgb(0,0,0)" /><rect x="432" y="324" width="12" height="12" fill="rgb(0,0,0)" /><rect x="444" y="324" width="12" height="12" fill="rgb(0,0,0)" /><rect x="456" y="324" width="12" height="12" fill="rgb(0,0,0)" /><rect x="468" y="324" width="12" height="12" fill="rgb(0,0,0)" /><rect x="480" y="324" width="12" height="12" fill="rgb(0,0,0)" /><rect x="492" y="324" width="12" height="12" fill="rgb(0,0,0)" /><rect x="504" y="324" width="12" height="12" fill="rgb(0,0,0)" /><rect x="324" y="336" width="12" height="12" fill="rgb(0,0,0)" /><rect x="336" y="336" width="12" height="12" fill="rgb(0,0,0)" /><rect x="348" y="336" width="12" height="12" fill="rgb(0,0,0)" /><rect x="360" y="336" width="12" height="12" fill="rgb(0,0,0)" /><rect x="372" y="336" width="12" height="12" fill="rgb(0,0,0)" /><rect x="420" y="336" width="12" height="12" fill="rgb(0,0,0)" /><rect x="432" y="336" width="12" height="12" fill="rgb(0,0,0)" /><rect x="444" y="336" width="12" height="12" fill="rgb(0,0,0)" /><rect x="456" y="336" width="12" height="12" fill="rgb(0,0,0)" /><rect x="468" y="336" width="12" height="12" fill="rgb(0,0,0)" /><rect x="480" y="336" width="12" height="12" fill="rgb(0,0,0)" /><rect x="492" y="336" width="12" height="12" fill="rgb(0,0,0)" /><rect x="504" y="336" width="12" height="12" fill="rgb(0,0,0)" /><rect x="300" y="348" width="12" height="12" fill="rgb(16,16,16)" /><rect x="312" y="348" width="12" height="12" fill="rgb(0,0,0)" /><rect x="324" y="348" width="12" height="12" fill="rgb(0,0,0)" /><rect x="336" y="348" width="12" height="12" fill="rgb(0,0,0)" /><rect x="348" y="348" width="12" height="12" fill="rgb(0,0,0)" /><rect x="360" y="348" width="12" height="12" fill="rgb(0,0,0)" /><rect x="372" y="348" width="12" height="12" fill="rgb(0,0,0)" /><rect x="384" y="348" width="12" height="12" fill="rgb(0,0,0)" /><rect x="420" y="348" width="12" height="12" fill="rgb(178,178,178)" /><rect x="432" y="348" width="12" height="12" fill="rgb(0,0,0)" /><rect x="444" y="348" width="12" height="12" fill="rgb(0,0,0)" /><rect x="456" y="348" width="12" height="12" fill="rgb(0,0,0)" /><rect x="468" y="348" width="12" height="12" fill="rgb(0,0,0)" /><rect x="480" y="348" width="12" height="12" fill="rgb(0,0,0)" /><rect x="492" y="348" width="12" height="12" fill="rgb(0,0,0)" /><rect x="504" y="348" width="12" height="12" fill="rgb(0,0,0)" /><rect x="516" y="348" width="12" height="12" fill="rgb(0,0,0)" /><rect x="300" y="360" width="12" height="12" fill="rgb(0,0,0)" /><rect x="312" y="360" width="12" height="12" fill="rgb(0,0,0)" /><rect x="324" y="360" width="12" height="12" fill="rgb(0,0,0)" /><rect x="336" y="360" width="12" height="12" fill="rgb(0,0,0)" /><rect x="348" y="360" width="12" height="12" fill="rgb(0,0,0)" /><rect x="360" y="360" width="12" height="12" fill="rgb(0,0,0)" /><rect x="372" y="360" width="12" height="12" fill="rgb(0,0,0)" /><rect x="384" y="360" width="12" height="12" fill="rgb(0,0,0)" /><rect x="432" y="360" width="12" height="12" fill="rgb(0,0,0)" /><rect x="444" y="360" width="12" height="12" fill="rgb(0,0,0)" /><rect x="456" y="360" width="12" height="12" fill="rgb(0,0,0)" /><rect x="468" y="360" width="12" height="12" fill="rgb(0,0,0)" /><rect x="480" y="360" width="12" height="12" fill="rgb(0,0,0)" /><rect x="492" y="360" width="12" height="12" fill="rgb(0,0,0)" /><rect x="504" y="360" width="12" height="12" fill="rgb(0,0,0)" /><rect x="516" y="360" width="12" height="12" fill="rgb(0,0,0)" /><rect x="528" y="360" width="12" height="12" fill="rgb(17,17,17)" /><rect x="300" y="372" width="12" height="12" fill="rgb(0,0,0)" /><rect x="312" y="372" width="12" height="12" fill="rgb(0,0,0)" /><rect x="324" y="372" width="12" height="12" fill="rgb(0,0,0)" /><rect x="336" y="372" width="12" height="12" fill="rgb(0,0,0)" /><rect x="348" y="372" width="12" height="12" fill="rgb(0,0,0)" /><rect x="360" y="372" width="12" height="12" fill="rgb(0,0,0)" /><rect x="372" y="372" width="12" height="12" fill="rgb(0,0,0)" /><rect x="384" y="372" width="12" height="12" fill="rgb(0,0,0)" /><rect x="396" y="372" width="12" height="12" fill="rgb(1,1,1)" /><rect x="444" y="372" width="12" height="12" fill="rgb(0,0,0)" /><rect x="456" y="372" width="12" height="12" fill="rgb(0,0,0)" /><rect x="468" y="372" width="12" height="12" fill="rgb(0,0,0)" /><rect x="480" y="372" width="12" height="12" fill="rgb(0,0,0)" /><rect x="492" y="372" width="12" height="12" fill="rgb(0,0,0)" /><rect x="504" y="372" width="12" height="12" fill="rgb(0,0,0)" /><rect x="516" y="372" width="12" height="12" fill="rgb(0,0,0)" /><rect x="528" y="372" width="12" height="12" fill="rgb(1,1,1)" /><rect x="312" y="384" width="12" height="12" fill="rgb(0,0,0)" /><rect x="324" y="384" width="12" height="12" fill="rgb(0,0,0)" /><rect x="336" y="384" width="12" height="12" fill="rgb(0,0,0)" /><rect x="348" y="384" width="12" height="12" fill="rgb(0,0,0)" /><rect x="360" y="384" width="12" height="12" fill="rgb(0,0,0)" /><rect x="372" y="384" width="12" height="12" fill="rgb(0,0,0)" /><rect x="384" y="384" width="12" height="12" fill="rgb(0,0,0)" /><rect x="396" y="384" width="12" height="12" fill="rgb(0,0,0)" /><rect x="444" y="384" width="12" height="12" fill="rgb(0,0,0)" /><rect x="456" y="384" width="12" height="12" fill="rgb(25,25,25)" /><rect x="468" y="384" width="12" height="12" fill="rgb(45,45,45)" /><rect x="480" y="384" width="12" height="12" fill="rgb(0,0,0)" /><rect x="492" y="384" width="12" height="12" fill="rgb(0,0,0)" /><rect x="504" y="384" width="12" height="12" fill="rgb(0,0,0)" /><rect x="516" y="384" width="12" height="12" fill="rgb(0,0,0)" /><rect x="528" y="384" width="12" height="12" fill="rgb(0,0,0)" /><rect x="540" y="384" width="12" height="12" fill="rgb(7,7,7)" /><rect x="264" y="396" width="12" height="12" fill="rgb(2,2,2)" /><rect x="276" y="396" width="12" height="12" fill="rgb(0,0,0)" /><rect x="312" y="396" width="12" height="12" fill="rgb(221,221,221)" /><rect x="324" y="396" width="12" height="12" fill="rgb(0,0,0)" /><rect x="336" y="396" width="12" height="12" fill="rgb(0,0,0)" /><rect x="348" y="396" width="12" height="12" fill="rgb(0,0,0)" /><rect x="360" y="396" width="12" height="12" fill="rgb(0,0,0)" /><rect x="372" y="396" width="12" height="12" fill="rgb(0,0,0)" /><rect x="384" y="396" width="12" height="12" fill="rgb(0,0,0)" /><rect x="396" y="396" width="12" height="12" fill="rgb(0,0,0)" /><rect x="408" y="396" width="12" height="12" fill="rgb(3,3,3)" /><rect x="432" y="396" width="12" height="12" fill="rgb(235,235,235)" /><rect x="456" y="396" width="12" height="12" fill="rgb(21,21,21)" /><rect x="468" y="396" width="12" height="12" fill="rgb(0,0,0)" /><rect x="480" y="396" width="12" height="12" fill="rgb(0,0,0)" /><rect x="492" y="396" width="12" height="12" fill="rgb(0,0,0)" /><rect x="504" y="396" width="12" height="12" fill="rgb(0,0,0)" /><rect x="516" y="396" width="12" height="12" fill="rgb(0,0,0)" /><rect x="528" y="396" width="12" height="12" fill="rgb(0,0,0)" /><rect x="540" y="396" width="12" height="12" fill="rgb(0,0,0)" /><rect x="240" y="408" width="12" height="12" fill="rgb(0,0,0)" /><rect x="252" y="408" width="12" height="12" fill="rgb(3,3,3)" /><rect x="264" y="408" width="12" height="12" fill="rgb(0,0,0)" /><rect x="276" y="408" width="12" height="12" fill="rgb(0,0,0)" /><rect x="312" y="408" width="12" height="12" fill="rgb(232,232,232)" /><rect x="324" y="408" width="12" height="12" fill="rgb(0,0,0)" /><rect x="336" y="408" width="12" height="12" fill="rgb(15,15,15)" /><rect x="348" y="408" width="12" height="12" fill="rgb(0,0,0)" /><rect x="360" y="408" width="12" height="12" fill="rgb(0,0,0)" /><rect x="372" y="408" width="12" height="12" fill="rgb(8,8,8)" /><rect x="384" y="408" width="12" height="12" fill="rgb(18,18,18)" /><rect x="396" y="408" width="12" height="12" fill="rgb(46,46,46)" /><rect x="408" y="408" width="12" height="12" fill="rgb(0,0,0)" /><rect x="420" y="408" width="12" height="12" fill="rgb(22,22,22)" /><rect x="432" y="408" width="12" height="12" fill="rgb(236,236,236)" /><rect x="444" y="408" width="12" height="12" fill="rgb(239,239,239)" /><rect x="456" y="408" width="12" height="12" fill="rgb(184,184,184)" /><rect x="468" y="408" width="12" height="12" fill="rgb(0,0,0)" /><rect x="480" y="408" width="12" height="12" fill="rgb(32,32,32)" /><rect x="492" y="408" width="12" height="12" fill="rgb(42,42,42)" /><rect x="504" y="408" width="12" height="12" fill="rgb(3,3,3)" /><rect x="516" y="408" width="12" height="12" fill="rgb(39,39,39)" /><rect x="528" y="408" width="12" height="12" fill="rgb(61,61,61)" /><rect x="540" y="408" width="12" height="12" fill="rgb(3,3,3)" /><rect x="552" y="408" width="12" height="12" fill="rgb(0,0,0)" /><rect x="216" y="420" width="12" height="12" fill="rgb(231,231,231)" /><rect x="228" y="420" width="12" height="12" fill="rgb(2,2,2)" /><rect x="240" y="420" width="12" height="12" fill="rgb(0,0,0)" /><rect x="252" y="420" width="12" height="12" fill="rgb(23,23,23)" /><rect x="264" y="420" width="12" height="12" fill="rgb(43,43,43)" /><rect x="276" y="420" width="12" height="12" fill="rgb(2,2,2)" /><rect x="288" y="420" width="12" height="12" fill="rgb(8,8,8)" /><rect x="324" y="420" width="12" height="12" fill="rgb(235,235,235)" /><rect x="336" y="420" width="12" height="12" fill="rgb(15,15,15)" /><rect x="348" y="420" width="12" height="12" fill="rgb(47,47,47)" /><rect x="360" y="420" width="12" height="12" fill="rgb(2,2,2)" /><rect x="372" y="420" width="12" height="12" fill="rgb(0,0,0)" /><rect x="384" y="420" width="12" height="12" fill="rgb(1,1,1)" /><rect x="396" y="420" width="12" height="12" fill="rgb(50,50,50)" /><rect x="408" y="420" width="12" height="12" fill="rgb(43,43,43)" /><rect x="420" y="420" width="12" height="12" fill="rgb(0,0,0)" /><rect x="432" y="420" width="12" height="12" fill="rgb(233,233,233)" /><rect x="444" y="420" width="12" height="12" fill="rgb(240,240,240)" /><rect x="468" y="420" width="12" height="12" fill="rgb(0,0,0)" /><rect x="480" y="420" width="12" height="12" fill="rgb(2,2,2)" /><rect x="492" y="420" width="12" height="12" fill="rgb(46,46,46)" /><rect x="504" y="420" width="12" height="12" fill="rgb(1,1,1)" /><rect x="516" y="420" width="12" height="12" fill="rgb(49,49,49)" /><rect x="528" y="420" width="12" height="12" fill="rgb(19,19,19)" /><rect x="540" y="420" width="12" height="12" fill="rgb(1,1,1)" /><rect x="552" y="420" width="12" height="12" fill="rgb(0,0,0)" /><rect x="564" y="420" width="12" height="12" fill="rgb(32,32,32)" /><rect x="204" y="432" width="12" height="12" fill="rgb(2,2,2)" /><rect x="216" y="432" width="12" height="12" fill="rgb(0,0,0)" /><rect x="228" y="432" width="12" height="12" fill="rgb(0,0,0)" /><rect x="240" y="432" width="12" height="12" fill="rgb(0,0,0)" /><rect x="252" y="432" width="12" height="12" fill="rgb(0,0,0)" /><rect x="264" y="432" width="12" height="12" fill="rgb(0,0,0)" /><rect x="276" y="432" width="12" height="12" fill="rgb(0,0,0)" /><rect x="288" y="432" width="12" height="12" fill="rgb(0,0,0)" /><rect x="336" y="432" width="12" height="12" fill="rgb(8,8,8)" /><rect x="348" y="432" width="12" height="12" fill="rgb(0,0,0)" /><rect x="360" y="432" width="12" height="12" fill="rgb(0,0,0)" /><rect x="372" y="432" width="12" height="12" fill="rgb(0,0,0)" /><rect x="384" y="432" width="12" height="12" fill="rgb(0,0,0)" /><rect x="396" y="432" width="12" height="12" fill="rgb(0,0,0)" /><rect x="408" y="432" width="12" height="12" fill="rgb(0,0,0)" /><rect x="420" y="432" width="12" height="12" fill="rgb(0,0,0)" /><rect x="432" y="432" width="12" height="12" fill="rgb(0,0,0)" /><rect x="480" y="432" width="12" height="12" fill="rgb(0,0,0)" /><rect x="492" y="432" width="12" height="12" fill="rgb(0,0,0)" /><rect x="504" y="432" width="12" height="12" fill="rgb(0,0,0)" /><rect x="516" y="432" width="12" height="12" fill="rgb(0,0,0)" /><rect x="528" y="432" width="12" height="12" fill="rgb(0,0,0)" /><rect x="540" y="432" width="12" height="12" fill="rgb(0,0,0)" /><rect x="552" y="432" width="12" height="12" fill="rgb(0,0,0)" /><rect x="564" y="432" width="12" height="12" fill="rgb(0,0,0)" /><rect x="216" y="444" width="12" height="12" fill="rgb(0,0,0)" /><rect x="228" y="444" width="12" height="12" fill="rgb(0,0,0)" /><rect x="240" y="444" width="12" height="12" fill="rgb(0,0,0)" /><rect x="252" y="444" width="12" height="12" fill="rgb(0,0,0)" /><rect x="264" y="444" width="12" height="12" fill="rgb(0,0,0)" /><rect x="276" y="444" width="12" height="12" fill="rgb(0,0,0)" /><rect x="288" y="444" width="12" height="12" fill="rgb(0,0,0)" /><rect x="300" y="444" width="12" height="12" fill="rgb(0,0,0)" /><rect x="348" y="444" width="12" height="12" fill="rgb(0,0,0)" /><rect x="360" y="444" width="12" height="12" fill="rgb(0,0,0)" /><rect x="372" y="444" width="12" height="12" fill="rgb(0,0,0)" /><rect x="384" y="444" width="12" height="12" fill="rgb(0,0,0)" /><rect x="396" y="444" width="12" height="12" fill="rgb(0,0,0)" /><rect x="408" y="444" width="12" height="12" fill="rgb(0,0,0)" /><rect x="420" y="444" width="12" height="12" fill="rgb(0,0,0)" /><rect x="432" y="444" width="12" height="12" fill="rgb(0,0,0)" /><rect x="480" y="444" width="12" height="12" fill="rgb(2,2,2)" /><rect x="492" y="444" width="12" height="12" fill="rgb(0,0,0)" /><rect x="504" y="444" width="12" height="12" fill="rgb(0,0,0)" /><rect x="516" y="444" width="12" height="12" fill="rgb(0,0,0)" /><rect x="528" y="444" width="12" height="12" fill="rgb(0,0,0)" /><rect x="540" y="444" width="12" height="12" fill="rgb(0,0,0)" /><rect x="552" y="444" width="12" height="12" fill="rgb(0,0,0)" /><rect x="564" y="444" width="12" height="12" fill="rgb(0,0,0)" /><rect x="576" y="444" width="12" height="12" fill="rgb(0,0,0)" /><rect x="324" y="456" width="12" height="12" fill="rgb(0,0,0)" /><rect x="348" y="456" width="12" height="12" fill="rgb(4,4,4)" /><rect x="360" y="456" width="12" height="12" fill="rgb(0,0,0)" /><rect x="456" y="456" width="12" height="12" fill="rgb(0,0,0)" /><rect x="324" y="468" width="12" height="12" fill="rgb(0,0,0)" /><rect x="348" y="468" width="12" height="12" fill="rgb(12,12,12)" /><rect x="360" y="468" width="12" height="12" fill="rgb(0,0,0)" /><rect x="456" y="468" width="12" height="12" fill="rgb(0,0,0)" /><rect x="180" y="480" width="12" height="12" fill="rgb(9,9,9)" /><rect x="192" y="480" width="12" height="12" fill="rgb(0,0,0)" /><rect x="204" y="480" width="12" height="12" fill="rgb(111,111,111)" /><rect x="216" y="480" width="12" height="12" fill="rgb(162,162,162)" /><rect x="228" y="480" width="12" height="12" fill="rgb(162,162,162)" /><rect x="276" y="480" width="12" height="12" fill="rgb(99,99,99)" /><rect x="288" y="480" width="12" height="12" fill="rgb(0,0,0)" /><rect x="300" y="480" width="12" height="12" fill="rgb(0,0,0)" /><rect x="324" y="480" width="12" height="12" fill="rgb(0,0,0)" /><rect x="348" y="480" width="12" height="12" fill="rgb(4,4,4)" /><rect x="360" y="480" width="12" height="12" fill="rgb(0,0,0)" /><rect x="408" y="480" width="12" height="12" fill="rgb(127,127,127)" /><rect x="420" y="480" width="12" height="12" fill="rgb(0,0,0)" /><rect x="432" y="480" width="12" height="12" fill="rgb(8,8,8)" /><rect x="456" y="480" width="12" height="12" fill="rgb(0,0,0)" /><rect x="516" y="480" width="12" height="12" fill="rgb(0,0,0)" /><rect x="528" y="480" width="12" height="12" fill="rgb(0,0,0)" /><rect x="552" y="480" width="12" height="12" fill="rgb(162,162,162)" /><rect x="564" y="480" width="12" height="12" fill="rgb(171,171,171)" /><rect x="600" y="480" width="12" height="12" fill="rgb(0,0,0)" /><rect x="612" y="480" width="12" height="12" fill="rgb(0,0,0)" /><rect x="624" y="480" width="12" height="12" fill="rgb(0,0,0)" /><rect x="168" y="492" width="12" height="12" fill="rgb(0,0,0)" /><rect x="180" y="492" width="12" height="12" fill="rgb(0,0,0)" /><rect x="192" y="492" width="12" height="12" fill="rgb(0,0,0)" /><rect x="204" y="492" width="12" height="12" fill="rgb(0,0,0)" /><rect x="216" y="492" width="12" height="12" fill="rgb(0,0,0)" /><rect x="228" y="492" width="12" height="12" fill="rgb(0,0,0)" /><rect x="264" y="492" width="12" height="12" fill="rgb(0,0,0)" /><rect x="276" y="492" width="12" height="12" fill="rgb(0,0,0)" /><rect x="288" y="492" width="12" height="12" fill="rgb(0,0,0)" /><rect x="300" y="492" width="12" height="12" fill="rgb(0,0,0)" /><rect x="312" y="492" width="12" height="12" fill="rgb(0,0,0)" /><rect x="324" y="492" width="12" height="12" fill="rgb(0,0,0)" /><rect x="348" y="492" width="12" height="12" fill="rgb(4,4,4)" /><rect x="360" y="492" width="12" height="12" fill="rgb(0,0,0)" /><rect x="396" y="492" width="12" height="12" fill="rgb(0,0,0)" /><rect x="408" y="492" width="12" height="12" fill="rgb(0,0,0)" /><rect x="420" y="492" width="12" height="12" fill="rgb(0,0,0)" /><rect x="432" y="492" width="12" height="12" fill="rgb(0,0,0)" /><rect x="444" y="492" width="12" height="12" fill="rgb(0,0,0)" /><rect x="456" y="492" width="12" height="12" fill="rgb(0,0,0)" /><rect x="492" y="492" width="12" height="12" fill="rgb(2,2,2)" /><rect x="504" y="492" width="12" height="12" fill="rgb(0,0,0)" /><rect x="516" y="492" width="12" height="12" fill="rgb(0,0,0)" /><rect x="528" y="492" width="12" height="12" fill="rgb(0,0,0)" /><rect x="540" y="492" width="12" height="12" fill="rgb(0,0,0)" /><rect x="552" y="492" width="12" height="12" fill="rgb(0,0,0)" /><rect x="564" y="492" width="12" height="12" fill="rgb(0,0,0)" /><rect x="588" y="492" width="12" height="12" fill="rgb(2,2,2)" /><rect x="600" y="492" width="12" height="12" fill="rgb(0,0,0)" /><rect x="612" y="492" width="12" height="12" fill="rgb(0,0,0)" /><rect x="624" y="492" width="12" height="12" fill="rgb(0,0,0)" /><rect x="636" y="492" width="12" height="12" fill="rgb(0,0,0)" /><rect x="648" y="492" width="12" height="12" fill="rgb(6,6,6)" /><rect x="156" y="504" width="12" height="12" fill="rgb(0,0,0)" /><rect x="168" y="504" width="12" height="12" fill="rgb(8,8,8)" /><rect x="216" y="504" width="12" height="12" fill="rgb(0,0,0)" /><rect x="228" y="504" width="12" height="12" fill="rgb(0,0,0)" /><rect x="252" y="504" width="12" height="12" fill="rgb(0,0,0)" /><rect x="264" y="504" width="12" height="12" fill="rgb(0,0,0)" /><rect x="312" y="504" width="12" height="12" fill="rgb(0,0,0)" /><rect x="324" y="504" width="12" height="12" fill="rgb(0,0,0)" /><rect x="348" y="504" width="12" height="12" fill="rgb(4,4,4)" /><rect x="360" y="504" width="12" height="12" fill="rgb(0,0,0)" /><rect x="384" y="504" width="12" height="12" fill="rgb(0,0,0)" /><rect x="396" y="504" width="12" height="12" fill="rgb(0,0,0)" /><rect x="444" y="504" width="12" height="12" fill="rgb(17,17,17)" /><rect x="456" y="504" width="12" height="12" fill="rgb(0,0,0)" /><rect x="480" y="504" width="12" height="12" fill="rgb(0,0,0)" /><rect x="492" y="504" width="12" height="12" fill="rgb(0,0,0)" /><rect x="504" y="504" width="12" height="12" fill="rgb(50,50,50)" /><rect x="540" y="504" width="12" height="12" fill="rgb(2,2,2)" /><rect x="552" y="504" width="12" height="12" fill="rgb(0,0,0)" /><rect x="564" y="504" width="12" height="12" fill="rgb(0,0,0)" /><rect x="588" y="504" width="12" height="12" fill="rgb(0,0,0)" /><rect x="600" y="504" width="12" height="12" fill="rgb(4,4,4)" /><rect x="636" y="504" width="12" height="12" fill="rgb(2,2,2)" /><rect x="648" y="504" width="12" height="12" fill="rgb(0,0,0)" /><rect x="156" y="516" width="12" height="12" fill="rgb(0,0,0)" /><rect x="216" y="516" width="12" height="12" fill="rgb(0,0,0)" /><rect x="228" y="516" width="12" height="12" fill="rgb(0,0,0)" /><rect x="252" y="516" width="12" height="12" fill="rgb(0,0,0)" /><rect x="264" y="516" width="12" height="12" fill="rgb(5,5,5)" /><rect x="324" y="516" width="12" height="12" fill="rgb(0,0,0)" /><rect x="348" y="516" width="12" height="12" fill="rgb(4,4,4)" /><rect x="360" y="516" width="12" height="12" fill="rgb(0,0,0)" /><rect x="384" y="516" width="12" height="12" fill="rgb(0,0,0)" /><rect x="396" y="516" width="12" height="12" fill="rgb(5,5,5)" /><rect x="456" y="516" width="12" height="12" fill="rgb(0,0,0)" /><rect x="480" y="516" width="12" height="12" fill="rgb(0,0,0)" /><rect x="492" y="516" width="12" height="12" fill="rgb(0,0,0)" /><rect x="552" y="516" width="12" height="12" fill="rgb(0,0,0)" /><rect x="564" y="516" width="12" height="12" fill="rgb(0,0,0)" /><rect x="588" y="516" width="12" height="12" fill="rgb(0,0,0)" /><rect x="600" y="516" width="12" height="12" fill="rgb(0,0,0)" /><rect x="612" y="516" width="12" height="12" fill="rgb(0,0,0)" /><rect x="624" y="516" width="12" height="12" fill="rgb(0,0,0)" /><rect x="636" y="516" width="12" height="12" fill="rgb(168,168,168)" /><rect x="156" y="528" width="12" height="12" fill="rgb(0,0,0)" /><rect x="216" y="528" width="12" height="12" fill="rgb(0,0,0)" /><rect x="228" y="528" width="12" height="12" fill="rgb(0,0,0)" /><rect x="252" y="528" width="12" height="12" fill="rgb(0,0,0)" /><rect x="264" y="528" width="12" height="12" fill="rgb(0,0,0)" /><rect x="312" y="528" width="12" height="12" fill="rgb(237,237,237)" /><rect x="324" y="528" width="12" height="12" fill="rgb(0,0,0)" /><rect x="348" y="528" width="12" height="12" fill="rgb(4,4,4)" /><rect x="360" y="528" width="12" height="12" fill="rgb(0,0,0)" /><rect x="384" y="528" width="12" height="12" fill="rgb(0,0,0)" /><rect x="396" y="528" width="12" height="12" fill="rgb(1,1,1)" /><rect x="456" y="528" width="12" height="12" fill="rgb(0,0,0)" /><rect x="480" y="528" width="12" height="12" fill="rgb(0,0,0)" /><rect x="492" y="528" width="12" height="12" fill="rgb(0,0,0)" /><rect x="552" y="528" width="12" height="12" fill="rgb(0,0,0)" /><rect x="564" y="528" width="12" height="12" fill="rgb(0,0,0)" /><rect x="600" y="528" width="12" height="12" fill="rgb(5,5,5)" /><rect x="612" y="528" width="12" height="12" fill="rgb(0,0,0)" /><rect x="624" y="528" width="12" height="12" fill="rgb(0,0,0)" /><rect x="636" y="528" width="12" height="12" fill="rgb(0,0,0)" /><rect x="648" y="528" width="12" height="12" fill="rgb(5,5,5)" /><rect x="156" y="540" width="12" height="12" fill="rgb(0,0,0)" /><rect x="168" y="540" width="12" height="12" fill="rgb(4,4,4)" /><rect x="216" y="540" width="12" height="12" fill="rgb(0,0,0)" /><rect x="228" y="540" width="12" height="12" fill="rgb(0,0,0)" /><rect x="252" y="540" width="12" height="12" fill="rgb(0,0,0)" /><rect x="264" y="540" width="12" height="12" fill="rgb(0,0,0)" /><rect x="312" y="540" width="12" height="12" fill="rgb(0,0,0)" /><rect x="324" y="540" width="12" height="12" fill="rgb(0,0,0)" /><rect x="348" y="540" width="12" height="12" fill="rgb(4,4,4)" /><rect x="360" y="540" width="12" height="12" fill="rgb(0,0,0)" /><rect x="384" y="540" width="12" height="12" fill="rgb(0,0,0)" /><rect x="396" y="540" width="12" height="12" fill="rgb(0,0,0)" /><rect x="444" y="540" width="12" height="12" fill="rgb(0,0,0)" /><rect x="456" y="540" width="12" height="12" fill="rgb(0,0,0)" /><rect x="480" y="540" width="12" height="12" fill="rgb(0,0,0)" /><rect x="492" y="540" width="12" height="12" fill="rgb(0,0,0)" /><rect x="540" y="540" width="12" height="12" fill="rgb(0,0,0)" /><rect x="552" y="540" width="12" height="12" fill="rgb(0,0,0)" /><rect x="564" y="540" width="12" height="12" fill="rgb(0,0,0)" /><rect x="576" y="540" width="12" height="12" fill="rgb(3,3,3)" /><rect x="588" y="540" width="12" height="12" fill="rgb(3,3,3)" /><rect x="636" y="540" width="12" height="12" fill="rgb(0,0,0)" /><rect x="648" y="540" width="12" height="12" fill="rgb(0,0,0)" /><rect x="156" y="552" width="12" height="12" fill="rgb(0,0,0)" /><rect x="168" y="552" width="12" height="12" fill="rgb(0,0,0)" /><rect x="180" y="552" width="12" height="12" fill="rgb(0,0,0)" /><rect x="192" y="552" width="12" height="12" fill="rgb(0,0,0)" /><rect x="204" y="552" width="12" height="12" fill="rgb(0,0,0)" /><rect x="216" y="552" width="12" height="12" fill="rgb(0,0,0)" /><rect x="228" y="552" width="12" height="12" fill="rgb(0,0,0)" /><rect x="264" y="552" width="12" height="12" fill="rgb(0,0,0)" /><rect x="276" y="552" width="12" height="12" fill="rgb(0,0,0)" /><rect x="288" y="552" width="12" height="12" fill="rgb(0,0,0)" /><rect x="300" y="552" width="12" height="12" fill="rgb(0,0,0)" /><rect x="312" y="552" width="12" height="12" fill="rgb(0,0,0)" /><rect x="324" y="552" width="12" height="12" fill="rgb(0,0,0)" /><rect x="348" y="552" width="12" height="12" fill="rgb(4,4,4)" /><rect x="360" y="552" width="12" height="12" fill="rgb(0,0,0)" /><rect x="396" y="552" width="12" height="12" fill="rgb(0,0,0)" /><rect x="408" y="552" width="12" height="12" fill="rgb(0,0,0)" /><rect x="420" y="552" width="12" height="12" fill="rgb(0,0,0)" /><rect x="432" y="552" width="12" height="12" fill="rgb(0,0,0)" /><rect x="444" y="552" width="12" height="12" fill="rgb(0,0,0)" /><rect x="456" y="552" width="12" height="12" fill="rgb(0,0,0)" /><rect x="492" y="552" width="12" height="12" fill="rgb(2,2,2)" /><rect x="504" y="552" width="12" height="12" fill="rgb(0,0,0)" /><rect x="516" y="552" width="12" height="12" fill="rgb(0,0,0)" /><rect x="528" y="552" width="12" height="12" fill="rgb(0,0,0)" /><rect x="540" y="552" width="12" height="12" fill="rgb(0,0,0)" /><rect x="552" y="552" width="12" height="12" fill="rgb(0,0,0)" /><rect x="564" y="552" width="12" height="12" fill="rgb(0,0,0)" /><rect x="576" y="552" width="12" height="12" fill="rgb(240,240,240)" /><rect x="588" y="552" width="12" height="12" fill="rgb(0,0,0)" /><rect x="600" y="552" width="12" height="12" fill="rgb(0,0,0)" /><rect x="612" y="552" width="12" height="12" fill="rgb(0,0,0)" /><rect x="624" y="552" width="12" height="12" fill="rgb(0,0,0)" /><rect x="636" y="552" width="12" height="12" fill="rgb(0,0,0)" /><rect x="648" y="552" width="12" height="12" fill="rgb(2,2,2)" /><rect x="180" y="564" width="12" height="12" fill="rgb(0,0,0)" /><rect x="192" y="564" width="12" height="12" fill="rgb(0,0,0)" /><rect x="204" y="564" width="12" height="12" fill="rgb(18,18,18)" /><rect x="216" y="564" width="12" height="12" fill="rgb(2,2,2)" /><rect x="228" y="564" width="12" height="12" fill="rgb(2,2,2)" /><rect x="276" y="564" width="12" height="12" fill="rgb(0,0,0)" /><rect x="288" y="564" width="12" height="12" fill="rgb(0,0,0)" /><rect x="300" y="564" width="12" height="12" fill="rgb(0,0,0)" /><rect x="324" y="564" width="12" height="12" fill="rgb(2,2,2)" /><rect x="348" y="564" width="12" height="12" fill="rgb(5,5,5)" /><rect x="360" y="564" width="12" height="12" fill="rgb(3,3,3)" /><rect x="408" y="564" width="12" height="12" fill="rgb(18,18,18)" /><rect x="420" y="564" width="12" height="12" fill="rgb(0,0,0)" /><rect x="432" y="564" width="12" height="12" fill="rgb(15,15,15)" /><rect x="456" y="564" width="12" height="12" fill="rgb(2,2,2)" /><rect x="504" y="564" width="12" height="12" fill="rgb(0,0,0)" /><rect x="516" y="564" width="12" height="12" fill="rgb(0,0,0)" /><rect x="528" y="564" width="12" height="12" fill="rgb(4,4,4)" /><rect x="540" y="564" width="12" height="12" fill="rgb(61,61,61)" /><rect x="552" y="564" width="12" height="12" fill="rgb(2,2,2)" /><rect x="564" y="564" width="12" height="12" fill="rgb(0,0,0)" /><rect x="588" y="564" width="12" height="12" fill="rgb(228,228,228)" /><rect x="600" y="564" width="12" height="12" fill="rgb(0,0,0)" /><rect x="612" y="564" width="12" height="12" fill="rgb(5,5,5)" /><rect x="624" y="564" width="12" height="12" fill="rgb(13,13,13)" /><rect x="636" y="564" width="12" height="12" fill="rgb(75,75,75)" /></svg>